<?xml version="1.0" encoding="UTF-8" standalone="no"?>
<!-- Created with Inkscape (http://www.inkscape.org/) -->

<svg
   width="211.53438mm"
   height="28.507565mm"
   viewBox="0 0 211.53438 28.507565"
   version="1.1"
   id="svg5"
   inkscape:version="1.1.2 (0a00cf5339, 2022-02-04)"
   sodipodi:docname="tb-logo-dlugie.svg"
   xmlns:inkscape="http://www.inkscape.org/namespaces/inkscape"
   xmlns:sodipodi="http://sodipodi.sourceforge.net/DTD/sodipodi-0.dtd"
   xmlns="http://www.w3.org/2000/svg"
   xmlns:svg="http://www.w3.org/2000/svg">
  <sodipodi:namedview
     id="namedview7"
     pagecolor="#ffffff"
     bordercolor="#000000"
     borderopacity="0.25"
     inkscape:pageshadow="2"
     inkscape:pageopacity="0.0"
     inkscape:pagecheckerboard="0"
     inkscape:document-units="mm"
     showgrid="false"
     inkscape:zoom="0.77771465"
     inkscape:cx="12.858187"
     inkscape:cy="-13.501096"
     inkscape:window-width="2490"
     inkscape:window-height="1376"
     inkscape:window-x="1990"
     inkscape:window-y="27"
     inkscape:window-maximized="1"
     inkscape:current-layer="layer1" />
  <defs
     id="defs2" />
  <g
     inkscape:label="Layer 1"
     inkscape:groupmode="layer"
     id="layer1"
     transform="translate(-5.373143,-152.16076)">
    <g
       id="g21"
       transform="translate(-13.989401,45.542777)">
      <path
         style="fill:#fe0000;stroke-width:0.264583"
         d="m 27.921982,134.67071 c -5.290983,-1.88633 -8.559438,-6.63748 -8.559438,-12.44231 0,-3.54346 1.022401,-6.36228 3.205528,-8.83784 2.045387,-2.31937 5.584454,-4.12675 8.080684,-4.12675 1.04943,0 1.149205,0.0574 1.149205,0.66146 0,0.58514 -0.111793,0.66146 -0.968933,0.66146 -3.572462,0 -7.8502,3.2161 -9.380956,7.05282 -0.520714,1.30513 -0.616871,2.02043 -0.616871,4.58885 0,2.56841 0.09616,3.28372 0.616871,4.58884 1.192811,2.98969 4.053634,5.67896 7.043977,6.62158 1.247516,0.39325 6.593447,0.43124 60.677604,0.43124 h 59.309557 v -1.32291 -1.32292 h 7.37464 7.37463 l 1.09204,-1.18471 c 1.15372,-1.25165 1.38628,-2.24344 0.79648,-3.39675 -0.72573,-1.41908 -1.04187,-1.49175 -6.51747,-1.49807 l -5.09323,-0.006 v -1.71979 -1.71979 h 4.77099 c 5.07692,0 6.28366,-0.22606 6.84938,-1.28312 0.46133,-0.86202 0.33739,-1.36687 -0.53586,-2.1826 l -0.82173,-0.76761 h -5.79285 -5.79285 v 5.42396 5.42395 h -1.85208 -1.85209 v -7.1612 -7.16121 l 8.00365,0.0836 8.00364,0.0836 1.32292,0.70141 c 1.58089,0.83819 2.34684,1.61311 2.89779,2.93172 0.69183,1.65579 0.36493,3.45947 -0.95487,5.26852 -0.26058,0.35718 -0.19347,0.5822 0.3752,1.25803 1.13767,1.35204 1.32439,4.92105 0.35438,6.77365 -0.57587,1.09985 -2.30048,3.04271 -2.70091,3.04271 -0.18187,0 -0.53902,0.20836 -0.79368,0.46302 -0.43829,0.4383 -4.07253,0.46557 -68.082958,0.51089 -65.000651,0.046 -67.672728,0.0291 -68.98239,-0.43785 z M 172.02713,123.28673 v -9.26042 h 8.06979 8.06979 v 1.7198 1.71979 h -6.21771 -6.2177 v 5.82083 5.82083 h 6.2177 6.21771 v 1.7198 1.71979 h -8.06979 -8.06979 z m 19.15816,8.89607 c -0.0769,-0.20039 -0.10292,-0.94453 -0.0578,-1.65365 l 0.082,-1.28929 7.80521,-0.1323 c 6.9833,-0.11836 7.88006,-0.18309 8.51606,-0.61476 0.80666,-0.54751 1.17676,-1.75228 0.77112,-2.51023 -0.62801,-1.17345 -1.73537,-1.37292 -7.62157,-1.37292 -5.43791,0 -5.55377,-0.0116 -6.92309,-0.69398 -2.37161,-1.18182 -3.50269,-3.82478 -2.69029,-6.28636 0.33488,-1.0147 1.87274,-2.80576 2.83715,-3.30427 0.39233,-0.20279 3.17499,-0.29873 8.6651,-0.29873 h 8.08719 v 1.7198 1.71979 h -7.52563 c -7.47682,0 -7.52829,0.004 -7.9375,0.58803 -0.6319,0.90217 -0.51696,1.93673 0.28527,2.56776 0.6544,0.51476 1.03368,0.54837 6.18749,0.54837 h 5.49036 l 1.41475,0.73908 c 0.88317,0.46137 1.71471,1.16585 2.21303,1.87488 0.71201,1.01306 0.79827,1.34529 0.79827,3.07459 0,1.72929 -0.0863,2.06152 -0.79827,3.07458 -0.49832,0.70903 -1.32986,1.41351 -2.21303,1.87488 l -1.41475,0.73908 h -7.91559 c -6.47793,0 -7.94099,-0.0662 -8.05541,-0.36435 z m 28.99601,-7.17628 v -7.54062 h -3.57188 -3.57187 v -1.72331 -1.72332 l 8.92968,0.0697 8.92969,0.0697 v 1.5875 1.5875 l -3.50573,0.0738 -3.50573,0.0738 v 7.53294 7.53295 h -1.85208 -1.85208 z m -43.65625,-1.85208 v -1.71979 h 5.42395 5.42396 v 1.71979 1.71979 h -5.42396 -5.42395 z"
         id="path25" />
      <path
         style="fill:#0000fe;stroke-width:0.264583"
         d="m 40.529211,123.02215 v -9.525 h -4.365625 -4.365625 v -2.11667 -2.11667 h 33.866667 33.866667 v 0.66146 0.66146 H 76.923247 54.315199 l -0.07997,1.38906 -0.07997,1.38907 -4.431771,0.0725 -4.431771,0.0725 v 9.5186 9.51861 h -2.38125 -2.38125 z m 14.816667,0.26458 v -9.26042 h 7.624895 c 8.326244,0 9.537533,0.16337 11.460546,1.54565 2.225421,1.59967 3.130116,4.37806 2.345386,7.20289 -0.37215,1.33965 -2.004203,3.13015 -3.473768,3.81101 l -1.254659,0.58129 2.496717,2.48634 c 1.373195,1.36748 2.496717,2.57798 2.496717,2.68999 0,0.11202 -1.103681,0.20367 -2.452622,0.20367 h -2.452621 l -2.503091,-2.51354 -2.503091,-2.51355 h -3.378663 -3.378663 v -1.69993 -1.69993 l 5.225521,-0.086 c 4.38644,-0.0722 5.36288,-0.16107 6.080938,-0.5535 2.46313,-1.34614 2.016836,-4.99345 -0.703477,-5.74914 -0.520129,-0.14448 -3.416237,-0.26337 -6.435794,-0.26418 l -5.490104,-0.001 v 7.54062 7.54063 h -1.852084 -1.852083 z m 24.022347,9.11749 c -0.287944,-0.28795 10.064459,-17.25189 10.88444,-17.83577 1.072798,-0.7639 2.223949,-0.69672 3.177952,0.18547 0.841981,0.77859 10.631253,17.40779 10.389773,17.64927 -0.0792,0.0792 -1.0772,0.14396 -2.21783,0.14396 h -2.073879 l -1.612027,-2.51354 -1.612027,-2.51355 h -4.207499 c -2.314125,0 -4.202864,-0.0893 -4.197199,-0.19843 0.0057,-0.10914 0.400454,-0.85329 0.87731,-1.65365 l 0.867008,-1.45521 2.261846,-0.13229 2.261847,-0.13229 -1.220925,-2.17581 c -0.67151,-1.19669 -1.314866,-2.14764 -1.429679,-2.11323 -0.114811,0.0344 -1.910342,2.91853 -3.990068,6.40914 l -3.781319,6.34657 -2.107568,0.076 c -1.15916,0.0418 -2.180733,0.003 -2.270156,-0.0866 z m 26.777655,-9.134 v -9.27693 l 6.68073,0.0827 6.68073,0.0827 1.49265,0.73301 c 2.92308,1.43549 4.71648,4.15898 4.93216,7.49007 0.2975,4.59492 -2.29446,8.55677 -6.39472,9.77442 -0.9937,0.2951 -2.798,0.39104 -7.35416,0.39104 h -6.03739 z m 13.12374,5.24696 c 3.38081,-1.81649 4.0384,-6.59729 1.28653,-9.35331 -1.40854,-1.41067 -2.61313,-1.69797 -7.1191,-1.69797 h -3.587 v 5.84802 5.84803 l 4.29947,-0.10193 c 3.36259,-0.0797 4.4783,-0.19801 5.1201,-0.54284 z m 9.10126,-5.23045 v -9.26042 h 8.06979 8.06979 v 1.7198 1.71979 h -6.21771 -6.2177 v 5.82083 5.82083 h 6.2177 6.21771 v 1.7198 1.71979 h -8.06979 -8.06979 z m 4.49792,-0.13229 v -1.71979 h 5.42395 5.42396 v 1.71979 1.71979 h -5.42396 -5.42395 z M 99.795879,109.79298 c 0,-1.74625 0.07452,-3.175 0.165592,-3.175 0.09108,0 1.539899,0.73308 3.219609,1.62906 l 3.05403,1.62906 -3.02118,1.53228 c -1.66165,0.84275 -3.11047,1.53842 -3.219614,1.54594 -0.109141,0.008 -0.198437,-1.41509 -0.198437,-3.16134 z"
         id="path23" />
    </g>
  </g>
</svg>
