<?xml version="1.0" encoding="UTF-8" standalone="no"?>
<!-- Created with Inkscape (http://www.inkscape.org/) -->

<svg
   width="55.916306mm"
   height="28.574881mm"
   viewBox="0 0 55.916306 28.574881"
   version="1.1"
   id="svg151"
   inkscape:version="1.1.2 (0a00cf5339, 2022-02-04)"
   sodipodi:docname="tb-logo-krotkie.svg"
   xmlns:inkscape="http://www.inkscape.org/namespaces/inkscape"
   xmlns:sodipodi="http://sodipodi.sourceforge.net/DTD/sodipodi-0.dtd"
   xmlns="http://www.w3.org/2000/svg"
   xmlns:svg="http://www.w3.org/2000/svg">
  <sodipodi:namedview
     id="namedview153"
     pagecolor="#ffffff"
     bordercolor="#000000"
     borderopacity="0.25"
     inkscape:pageshadow="2"
     inkscape:pageopacity="0.0"
     inkscape:pagecheckerboard="0"
     inkscape:document-units="mm"
     showgrid="false"
     inkscape:zoom="0.77771465"
     inkscape:cx="-178.72879"
     inkscape:cy="-72.648754"
     inkscape:window-width="2490"
     inkscape:window-height="1376"
     inkscape:window-x="1990"
     inkscape:window-y="27"
     inkscape:window-maximized="1"
     inkscape:current-layer="layer1" />
  <defs
     id="defs148" />
  <g
     inkscape:label="Layer 1"
     inkscape:groupmode="layer"
     id="layer1"
     transform="translate(-56.071227,-167.68483)">
    <g
       id="g167"
       transform="translate(-0.93448725,43.300498)">
      <path
         style="fill:#fe0000;stroke-width:0.264583"
         d="m 65.565152,152.43599 c -5.288019,-1.88115 -8.559438,-6.6362 -8.559438,-12.44125 0,-3.54345 1.022401,-6.36228 3.205528,-8.83784 2.045387,-2.31937 5.584454,-4.12674 8.080684,-4.12674 1.049429,0 1.149204,0.0574 1.149204,0.66146 0,0.58514 -0.111793,0.66146 -0.968932,0.66146 -3.572462,0 -7.8502,3.2161 -9.380956,7.05282 -0.520714,1.30513 -0.616871,2.02043 -0.616871,4.58884 0,2.56842 0.09616,3.28372 0.616871,4.58885 1.192811,2.98969 4.053634,5.67896 7.043976,6.62158 1.151448,0.36296 2.778179,0.43124 10.274479,0.43124 h 8.906433 v -1.32292 -1.32291 h 7.332173 7.332172 l 1.134495,-1.11342 c 1.20755,-1.18512 1.46409,-2.24563 0.83894,-3.46804 -0.72572,-1.41908 -1.04187,-1.49175 -6.517468,-1.49808 l -5.093229,-0.006 v -1.71979 -1.71979 h 4.770998 c 5.076919,0 6.283649,-0.22607 6.849369,-1.28313 0.4328,-0.80869 0.35144,-1.2442 -0.39909,-2.13616 l -0.68498,-0.81405 h -5.929608 -5.929606 v 5.42396 5.42396 H 87.168213 85.31613 v -7.14375 -7.14375 h 7.625783 c 8.634957,0 9.239657,0.10088 11.258787,1.87819 0.66821,0.58818 1.32394,1.46012 1.50058,1.99535 0.46906,1.42125 0.19364,3.34722 -0.63378,4.43203 -0.38575,0.50575 -0.70137,0.99496 -0.70137,1.08714 0,0.0922 0.31373,0.57893 0.69719,1.08166 0.82888,1.08672 1.13804,3.77673 0.64394,5.60295 -0.40029,1.4795 -2.22836,3.67293 -3.71829,4.46142 l -1.18653,0.62793 -16.937425,-0.0193 c -15.717832,-0.0179 -17.03553,-0.0542 -18.299863,-0.50401 z"
         id="path171" />
      <path
         style="fill:#0000fe;stroke-width:0.264583"
         d="m 78.17238,140.78849 v -9.525 H 73.806755 69.44113 v -2.11666 -2.11667 h 18.388541 18.388539 v 0.66146 0.66146 h -7.143747 -7.14375 v 1.45521 1.4552 H 87.432796 82.93488 v 9.525 9.525 h -2.38125 -2.38125 z m 28.31042,-13.22916 c 0,-1.74625 0.0745,-3.175 0.16559,-3.175 0.0911,0 1.5399,0.73307 3.21961,1.62906 l 3.05402,1.62906 -3.02117,1.53227 c -1.66165,0.84276 -3.11048,1.53843 -3.21962,1.54594 -0.10914,0.008 -0.19843,-1.41508 -0.19843,-3.16133 z"
         id="path169" />
    </g>
  </g>
</svg>
